<svg width="223" height="58" viewBox="0 0 223 58" fill="none" xmlns="http://www.w3.org/2000/svg">
<path d="M2.5 13C2.5 7.20101 7.20101 2.5 13 2.5H209.784C215.583 2.5 220.284 7.20101 220.284 13V45C220.284 50.799 215.583 55.5 209.784 55.5H13C7.20101 55.5 2.5 50.799 2.5 45V13Z" fill="black" stroke="white" stroke-width="5"/>
<path d="M9.68628 11H118.173V47H9.68628V11Z" fill="white"/>
<path d="M130.5 11.5H206.5V46.5H130.5V11.5Z" stroke="white"/>
<path d="M151.016 22.228H154.851L159.524 35.0703L164.213 22.228H168.032L161.071 41H157.993L151.016 22.228ZM148.728 22.228H152.644L153.385 36.9395V41H148.728V22.228ZM166.42 22.228H170.368V41H165.695V36.9395L166.42 22.228ZM187.4 37.3745V41H176.604V37.3745H187.4ZM178.248 22.228V41H173.607V22.228H178.248ZM186.014 29.479V33.1045H176.604V29.479H186.014ZM187.416 22.228V25.8696H176.604V22.228H187.416Z" fill="white"/>
<path d="M28.9496 25.7625L23.7289 41.675H19.5234L26.6557 22.4797H29.332L28.9496 25.7625ZM33.287 41.675L28.0532 25.7625L27.6313 22.4797H30.3339L37.5058 41.675H33.287ZM33.0497 34.5295V37.6277H22.9116V34.5295H33.0497ZM46.8002 33.2507H41.8696L41.8432 30.5349H45.9828C46.7123 30.5349 47.31 30.4426 47.7758 30.2581C48.2416 30.0647 48.5888 29.7878 48.8173 29.4275C49.0546 29.0583 49.1733 28.6101 49.1733 28.0828C49.1733 27.4851 49.059 27.0017 48.8305 26.6326C48.6108 26.2634 48.2636 25.9954 47.789 25.8284C47.3232 25.6614 46.7211 25.5779 45.9828 25.5779H43.2407V41.675H39.2856V22.4797H45.9828C47.0991 22.4797 48.0966 22.5852 48.9755 22.7961C49.8632 23.0071 50.6147 23.3279 51.2299 23.7585C51.8452 24.1892 52.3154 24.7341 52.6406 25.3933C52.9658 26.0437 53.1284 26.8171 53.1284 27.7136C53.1284 28.5046 52.9482 29.2341 52.5878 29.9021C52.2363 30.5701 51.6782 31.115 50.9135 31.5369C50.1577 31.9587 49.1689 32.1917 47.9472 32.2356L46.8002 33.2507ZM46.6288 41.675H40.7885L42.331 38.5901H46.6288C47.3232 38.5901 47.8901 38.4802 48.3295 38.2605C48.769 38.032 49.0942 37.7244 49.3051 37.3376C49.5161 36.9509 49.6215 36.5071 49.6215 36.0061C49.6215 35.4436 49.5248 34.9558 49.3315 34.5427C49.1469 34.1296 48.8481 33.8132 48.435 33.5935C48.0219 33.365 47.477 33.2507 46.8002 33.2507H42.9902L43.0165 30.5349H47.7626L48.6723 31.6028C49.8412 31.5852 50.7817 31.7917 51.4936 32.2224C52.2143 32.6443 52.7372 33.1936 53.0624 33.8704C53.3964 34.5471 53.5634 35.2722 53.5634 36.0457C53.5634 37.2761 53.2953 38.3132 52.7592 39.157C52.2231 39.9919 51.4365 40.6204 50.3994 41.0422C49.371 41.4641 48.1142 41.675 46.6288 41.675ZM72.2973 31.6292V32.5388C72.2973 33.9978 72.0995 35.3074 71.704 36.4675C71.3085 37.6277 70.7504 38.6165 70.0297 39.4338C69.309 40.2424 68.4477 40.8621 67.4457 41.2927C66.4526 41.7234 65.3495 41.9387 64.1367 41.9387C62.9326 41.9387 61.8295 41.7234 60.8276 41.2927C59.8344 40.8621 58.9731 40.2424 58.2436 39.4338C57.5141 38.6165 56.9472 37.6277 56.5429 36.4675C56.1474 35.3074 55.9496 33.9978 55.9496 32.5388V31.6292C55.9496 30.1614 56.1474 28.8518 56.5429 27.7004C56.9384 26.5403 57.4965 25.5515 58.2172 24.7341C58.9467 23.9167 59.808 23.2927 60.8012 22.8621C61.8032 22.4314 62.9062 22.2161 64.1103 22.2161C65.3232 22.2161 66.4262 22.4314 67.4194 22.8621C68.4213 23.2927 69.2827 23.9167 70.0034 24.7341C70.7328 25.5515 71.2953 26.5403 71.6909 27.7004C72.0952 28.8518 72.2973 30.1614 72.2973 31.6292ZM68.3027 32.5388V31.6028C68.3027 30.5833 68.2104 29.6868 68.0258 28.9133C67.8412 28.1399 67.5688 27.4895 67.2084 26.9622C66.8481 26.4348 66.4086 26.0393 65.8901 25.7756C65.3715 25.5032 64.7783 25.3669 64.1103 25.3669C63.4423 25.3669 62.8491 25.5032 62.3305 25.7756C61.8207 26.0393 61.3857 26.4348 61.0253 26.9622C60.6738 27.4895 60.4057 28.1399 60.2211 28.9133C60.0366 29.6868 59.9443 30.5833 59.9443 31.6028V32.5388C59.9443 33.5496 60.0366 34.446 60.2211 35.2283C60.4057 36.0017 60.6782 36.6565 61.0385 37.1926C61.3989 37.72 61.8383 38.1199 62.3569 38.3923C62.8754 38.6648 63.4687 38.801 64.1367 38.801C64.8046 38.801 65.3979 38.6648 65.9164 38.3923C66.435 38.1199 66.8701 37.72 67.2216 37.1926C67.5732 36.6565 67.8412 36.0017 68.0258 35.2283C68.2104 34.446 68.3027 33.5496 68.3027 32.5388ZM85.7446 22.4797H89.6865V35.1624C89.6865 36.6389 89.3701 37.8826 88.7372 38.8933C88.1132 39.9041 87.2475 40.6643 86.1401 41.1741C85.0414 41.6838 83.7758 41.9387 82.3432 41.9387C80.9106 41.9387 79.6362 41.6838 78.52 41.1741C77.4125 40.6643 76.5424 39.9041 75.9096 38.8933C75.2856 37.8826 74.9736 36.6389 74.9736 35.1624V22.4797H78.9286V35.1624C78.9286 36.0237 79.0649 36.7268 79.3373 37.2717C79.6098 37.8167 80.0009 38.2166 80.5107 38.4714C81.0292 38.7263 81.6401 38.8538 82.3432 38.8538C83.0639 38.8538 83.6747 38.7263 84.1757 38.4714C84.6855 38.2166 85.0722 37.8167 85.3359 37.2717C85.6083 36.7268 85.7446 36.0237 85.7446 35.1624V22.4797ZM101.525 22.4797V41.675H97.5834V22.4797H101.525ZM107.432 22.4797V25.5779H91.7695V22.4797H107.432Z" fill="black"/>
</svg>
