<svg width="311" height="58" viewBox="0 0 311 58" fill="none" xmlns="http://www.w3.org/2000/svg">
<path d="M2.5 13C2.5 7.20101 7.20101 2.5 13 2.5H297.784C303.583 2.5 308.284 7.20101 308.284 13V45C308.284 50.799 303.583 55.5 297.784 55.5H13C7.20101 55.5 2.5 50.799 2.5 45V13Z" fill="black" stroke="white" stroke-width="5"/>
<path d="M13.5124 11H164.851V47H13.5124V11Z" fill="white"/>
<path d="M181.85 11.5H288.265V46.5H181.85V11.5Z" stroke="white"/>
<path d="M217.179 22.228H221.014L225.687 35.0703L230.376 22.228H234.194L227.233 41H224.156L217.179 22.228ZM214.891 22.228H218.806L219.547 36.9395V41H214.891V22.228ZM232.583 22.228H236.531V41H231.858V36.9395L232.583 22.228ZM253.563 37.3745V41H242.767V37.3745H253.563ZM244.41 22.228V41H239.77V22.228H244.41ZM252.177 29.479V33.1045H242.767V29.479H252.177ZM253.579 22.228V25.8696H242.767V22.228H253.579Z" fill="white"/>
<path d="M39.9472 35.3074H43.8891C43.81 36.5994 43.454 37.7463 42.8212 38.7483C42.1972 39.7502 41.3227 40.5325 40.1977 41.095C39.0815 41.6575 37.7368 41.9387 36.1635 41.9387C34.933 41.9387 33.83 41.7278 32.8544 41.3059C31.8788 40.8752 31.0439 40.26 30.3495 39.4602C29.664 38.6604 29.1411 37.6936 28.7807 36.5598C28.4203 35.426 28.2402 34.156 28.2402 32.7498V31.4182C28.2402 30.012 28.4247 28.7419 28.7939 27.6082C29.1718 26.4656 29.7079 25.4944 30.4023 24.6946C31.1054 23.8948 31.9448 23.2795 32.9203 22.8489C33.8959 22.4182 34.9858 22.2029 36.1899 22.2029C37.7895 22.2029 39.1386 22.4929 40.2372 23.073C41.3447 23.6531 42.2016 24.4529 42.808 25.4724C43.4233 26.4919 43.7924 27.6521 43.9155 28.9529H39.9604C39.9164 28.1794 39.7626 27.5247 39.499 26.9885C39.2353 26.4436 38.8354 26.0349 38.2993 25.7625C37.7719 25.4812 37.0688 25.3406 36.1899 25.3406C35.5307 25.3406 34.955 25.4636 34.4628 25.7097C33.9706 25.9558 33.5576 26.3293 33.2236 26.8303C32.8896 27.3313 32.6391 27.9641 32.4721 28.7288C32.3139 29.4846 32.2348 30.3723 32.2348 31.3918V32.7498C32.2348 33.7429 32.3095 34.6174 32.4589 35.3733C32.6083 36.1204 32.8369 36.7532 33.1445 37.2717C33.4609 37.7815 33.8652 38.1682 34.3574 38.4319C34.8583 38.6868 35.4604 38.8142 36.1635 38.8142C36.9897 38.8142 37.6708 38.6824 38.207 38.4187C38.7431 38.155 39.1518 37.7639 39.433 37.2454C39.7231 36.7268 39.8945 36.0808 39.9472 35.3074ZM62.2538 31.6292V32.5388C62.2538 33.9978 62.0561 35.3074 61.6606 36.4675C61.2651 37.6277 60.707 38.6165 59.9863 39.4338C59.2656 40.2424 58.4042 40.8621 57.4023 41.2927C56.4091 41.7234 55.3061 41.9387 54.0932 41.9387C52.8891 41.9387 51.7861 41.7234 50.7841 41.2927C49.791 40.8621 48.9296 40.2424 48.2001 39.4338C47.4706 38.6165 46.9037 37.6277 46.4995 36.4675C46.1039 35.3074 45.9062 33.9978 45.9062 32.5388V31.6292C45.9062 30.1614 46.1039 28.8518 46.4995 27.7004C46.895 26.5403 47.4531 25.5515 48.1738 24.7341C48.9033 23.9167 49.7646 23.2927 50.7578 22.8621C51.7597 22.4314 52.8627 22.2161 54.0668 22.2161C55.2797 22.2161 56.3828 22.4314 57.3759 22.8621C58.3779 23.2927 59.2392 23.9167 59.9599 24.7341C60.6894 25.5515 61.2519 26.5403 61.6474 27.7004C62.0517 28.8518 62.2538 30.1614 62.2538 31.6292ZM58.2592 32.5388V31.6028C58.2592 30.5833 58.1669 29.6868 57.9824 28.9133C57.7978 28.1399 57.5253 27.4895 57.165 26.9622C56.8046 26.4348 56.3652 26.0393 55.8466 25.7756C55.3281 25.5032 54.7348 25.3669 54.0668 25.3669C53.3989 25.3669 52.8056 25.5032 52.287 25.7756C51.7773 26.0393 51.3422 26.4348 50.9819 26.9622C50.6303 27.4895 50.3622 28.1399 50.1777 28.9133C49.9931 29.6868 49.9008 30.5833 49.9008 31.6028V32.5388C49.9008 33.5496 49.9931 34.446 50.1777 35.2283C50.3622 36.0017 50.6347 36.6565 50.9951 37.1926C51.3554 37.72 51.7949 38.1199 52.3134 38.3923C52.832 38.6648 53.4252 38.801 54.0932 38.801C54.7612 38.801 55.3544 38.6648 55.873 38.3923C56.3915 38.1199 56.8266 37.72 57.1782 37.1926C57.5297 36.6565 57.7978 36.0017 57.9824 35.2283C58.1669 34.446 58.2592 33.5496 58.2592 32.5388ZM80.7241 22.4797V41.675H76.769L69.0566 28.8079V41.675H65.1015V22.4797H69.0566L76.7822 35.3601V22.4797H80.7241ZM92.352 22.4797V41.675H88.4101V22.4797H92.352ZM98.2582 22.4797V25.5779H82.5961V22.4797H98.2582ZM106.893 25.7625L101.673 41.675H97.4672L104.6 22.4797H107.276L106.893 25.7625ZM111.231 41.675L105.997 25.7625L105.575 22.4797H108.278L115.45 41.675H111.231ZM110.994 34.5295V37.6277H100.855V34.5295H110.994ZM128.119 35.3074H132.061C131.982 36.5994 131.626 37.7463 130.993 38.7483C130.369 39.7502 129.495 40.5325 128.37 41.095C127.253 41.6575 125.909 41.9387 124.335 41.9387C123.105 41.9387 122.002 41.7278 121.026 41.3059C120.051 40.8752 119.216 40.26 118.521 39.4602C117.836 38.6604 117.313 37.6936 116.953 36.5598C116.592 35.426 116.412 34.156 116.412 32.7498V31.4182C116.412 30.012 116.597 28.7419 116.966 27.6082C117.344 26.4656 117.88 25.4944 118.574 24.6946C119.277 23.8948 120.117 23.2795 121.092 22.8489C122.068 22.4182 123.158 22.2029 124.362 22.2029C125.961 22.2029 127.31 22.4929 128.409 23.073C129.517 23.6531 130.373 24.4529 130.98 25.4724C131.595 26.4919 131.964 27.6521 132.087 28.9529H128.132C128.088 28.1794 127.935 27.5247 127.671 26.9885C127.407 26.4436 127.007 26.0349 126.471 25.7625C125.944 25.4812 125.241 25.3406 124.362 25.3406C123.703 25.3406 123.127 25.4636 122.635 25.7097C122.143 25.9558 121.729 26.3293 121.395 26.8303C121.061 27.3313 120.811 27.9641 120.644 28.7288C120.486 29.4846 120.407 30.3723 120.407 31.3918V32.7498C120.407 33.7429 120.481 34.6174 120.631 35.3733C120.78 36.1204 121.009 36.7532 121.316 37.2717C121.633 37.7815 122.037 38.1682 122.529 38.4319C123.03 38.6868 123.632 38.8142 124.335 38.8142C125.162 38.8142 125.843 38.6824 126.379 38.4187C126.915 38.155 127.324 37.7639 127.605 37.2454C127.895 36.7268 128.066 36.0808 128.119 35.3074ZM142.845 22.4797V41.675H138.903V22.4797H142.845ZM148.751 22.4797V25.5779H133.089V22.4797H148.751Z" fill="black"/>
</svg>
