<svg width="60" height="61" viewBox="0 0 60 61" fill="none" xmlns="http://www.w3.org/2000/svg">
<path d="M29.9999 0.439697C22.8763 0.44 15.9854 3.03916 10.5599 7.77212C5.13445 12.5051 1.52857 19.063 0.387479 26.2724C-0.753617 33.4818 0.644531 40.8723 4.33175 47.1215C8.01897 53.3707 13.7546 58.0708 20.5125 60.3808C22.0125 60.65 22.575 59.7273 22.575 58.9198C22.575 58.1893 22.5375 55.767 22.5375 53.191C15 54.6135 13.05 51.3071 12.45 49.5769C11.7842 47.8942 10.7288 46.403 9.37502 45.2322C8.32502 44.6554 6.82503 43.2328 9.33749 43.1944C10.2968 43.3012 11.217 43.6434 12.0199 44.1923C12.8228 44.7411 13.4849 45.4802 13.95 46.3471C14.3603 47.1029 14.912 47.7682 15.5735 48.3049C16.2351 48.8417 16.9934 49.2393 17.8051 49.475C18.6167 49.7108 19.4658 49.78 20.3036 49.6787C21.1414 49.5774 21.9514 49.3076 22.6874 48.8847C22.8172 47.321 23.4969 45.859 24.5999 44.7709C17.925 44.0019 10.95 41.3488 10.95 29.5837C10.9078 26.5267 12.0081 23.5691 14.025 21.3173C13.1078 18.6604 13.2151 15.7447 14.325 13.1662C14.325 13.1662 16.8374 12.3588 22.5749 16.319C27.4837 14.9348 32.666 14.9348 37.5748 16.319C43.3122 12.3204 45.8248 13.1662 45.8248 13.1662C46.9347 15.7447 47.0421 18.6604 46.1248 21.3173C48.1478 23.5652 49.2489 26.5255 49.1997 29.5837C49.1997 41.3873 42.1872 44.0019 35.5123 44.7709C36.2283 45.5149 36.7797 46.4081 37.1291 47.39C37.4785 48.3719 37.6177 49.4193 37.5373 50.4612C37.5373 54.5753 37.4998 57.8817 37.4998 58.9199C37.4998 59.7273 38.0623 60.6885 39.5623 60.3809C46.3082 58.0521 52.0274 53.341 55.6989 47.0886C59.3704 40.8362 60.7553 33.4495 59.6063 26.247C58.4573 19.0446 54.8492 12.4952 49.4261 7.76801C44.0031 3.04081 37.1179 0.443496 29.9999 0.439697Z" fill="#3C3C3C"/>
</svg>
