<svg width="360" height="80" viewBox="0 0 360 80" fill="none" xmlns="http://www.w3.org/2000/svg">
<path d="M2.5 13C2.5 7.20101 7.20101 2.5 13 2.5H346.068C351.867 2.5 356.568 7.20101 356.568 13V67C356.568 72.799 351.867 77.5 346.068 77.5H13C7.20103 77.5 2.5 72.799 2.5 67V13Z" fill="black" stroke="white" stroke-width="5"/>
<path d="M13.057 15H176.27V65H13.057V15Z" fill="white"/>
<path d="M180.5 15.5H342.713V64.5H180.5V15.5Z" stroke="white"/>
<path d="M203.042 27.9707H213.505C215.052 27.9707 216.448 28.1354 217.694 28.4648C218.94 28.7799 220 29.2526 220.874 29.8828C221.762 30.513 222.442 31.3008 222.915 32.2461C223.388 33.1771 223.624 34.2585 223.624 35.4902C223.624 36.9512 223.381 38.1686 222.894 39.1426C222.407 40.1165 221.733 40.9115 220.874 41.5273C220.015 42.1432 219.019 42.6589 217.888 43.0742L215.825 44.2773H206.931L206.888 39.4434H213.548C214.407 39.4434 215.123 39.3145 215.696 39.0566C216.269 38.7845 216.699 38.3978 216.985 37.8965C217.272 37.3952 217.415 36.8008 217.415 36.1133C217.415 35.4115 217.265 34.8171 216.964 34.3301C216.663 33.8431 216.219 33.4707 215.632 33.2129C215.059 32.9551 214.35 32.8262 213.505 32.8262H209.251V53H203.042V27.9707ZM217.888 53L211.894 41.957L218.468 41.8926L224.569 52.7422V53H217.888ZM234.345 27.9707V53H228.136V27.9707H234.345ZM247.708 53H241.735L241.757 48.166H247.708C249.169 48.166 250.351 47.901 251.253 47.3711C252.155 46.8411 252.807 46.0462 253.208 44.9863C253.623 43.9264 253.831 42.6016 253.831 41.0117V39.9375C253.831 38.7773 253.717 37.7533 253.487 36.8652C253.258 35.9629 252.9 35.2181 252.413 34.6309C251.926 34.0293 251.289 33.5781 250.501 33.2773C249.713 32.9766 248.754 32.8262 247.622 32.8262H241.606V27.9707H247.622C249.441 27.9707 251.11 28.2643 252.628 28.8516C254.146 29.4388 255.457 30.2695 256.56 31.3438C257.677 32.4036 258.536 33.6712 259.138 35.1465C259.739 36.6074 260.04 38.2188 260.04 39.9805V41.0117C260.04 43.3464 259.51 45.4232 258.45 47.2422C257.405 49.0469 255.951 50.4577 254.089 51.4746C252.227 52.4915 250.1 53 247.708 53ZM245.259 27.9707V53H239.071V27.9707H245.259ZM285.392 39.5508V49.9492C284.933 50.4219 284.239 50.9232 283.308 51.4531C282.391 51.9831 281.224 52.4342 279.806 52.8066C278.402 53.1647 276.726 53.3438 274.778 53.3438C273.017 53.3438 271.412 53.0788 269.966 52.5488C268.519 52.0189 267.273 51.2383 266.228 50.207C265.196 49.1615 264.401 47.8867 263.843 46.3828C263.284 44.8646 263.005 43.1315 263.005 41.1836V39.7871C263.005 37.8392 263.284 36.1133 263.843 34.6094C264.401 33.1055 265.189 31.8307 266.206 30.7852C267.237 29.7396 268.448 28.9518 269.837 28.4219C271.226 27.8776 272.759 27.6055 274.435 27.6055C276.87 27.6055 278.86 27.9779 280.407 28.7227C281.954 29.4531 283.121 30.4701 283.909 31.7734C284.711 33.0625 285.198 34.5521 285.37 36.2422H279.398C279.269 35.4115 279.025 34.7168 278.667 34.1582C278.309 33.5996 277.808 33.1771 277.163 32.8906C276.519 32.6042 275.674 32.4609 274.628 32.4609C273.812 32.4609 273.074 32.6113 272.415 32.9121C271.756 33.1986 271.183 33.6426 270.696 34.2441C270.224 34.8457 269.858 35.6048 269.601 36.5215C269.343 37.4238 269.214 38.498 269.214 39.7441V41.1836C269.214 42.4154 269.336 43.4896 269.579 44.4062C269.837 45.3229 270.209 46.0892 270.696 46.7051C271.198 47.3066 271.821 47.765 272.565 48.0801C273.325 48.3809 274.213 48.5312 275.23 48.5312C276.318 48.5312 277.177 48.4238 277.808 48.209C278.438 47.9798 278.889 47.765 279.161 47.5645V43.8262H274.306V39.5508H285.392ZM307.478 48.166V53H293.083V48.166H307.478ZM295.274 27.9707V53H289.087V27.9707H295.274ZM305.63 37.6387V42.4727H293.083V37.6387H305.63ZM307.499 27.9707V32.8262H293.083V27.9707H307.499Z" fill="white"/>
<path d="M38.5854 46.7974V30.5391H43.4033V46.7974C43.4033 48.3657 43.0596 49.7139 42.3721 50.8418C41.6846 51.959 40.7446 52.8184 39.5522 53.4199C38.3706 54.0215 37.0386 54.3223 35.5562 54.3223C34.02 54.3223 32.6611 54.0645 31.4795 53.5488C30.2979 53.0332 29.3687 52.2437 28.6919 51.1802C28.0151 50.106 27.6768 48.7471 27.6768 47.1035H32.5269C32.5269 47.9629 32.645 48.645 32.8813 49.1499C33.1284 49.6548 33.4775 50.0146 33.9287 50.2295C34.3799 50.4443 34.9224 50.5518 35.5562 50.5518C36.1685 50.5518 36.7002 50.4067 37.1514 50.1167C37.6025 49.8267 37.9517 49.4023 38.1987 48.8438C38.4565 48.2852 38.5854 47.603 38.5854 46.7974ZM66.7998 41.7217V42.8335C66.7998 44.6167 66.5581 46.2173 66.0747 47.6353C65.5913 49.0532 64.9092 50.2617 64.0283 51.2607C63.1475 52.249 62.0947 53.0063 60.8701 53.5327C59.6562 54.0591 58.3081 54.3223 56.8257 54.3223C55.354 54.3223 54.0059 54.0591 52.7812 53.5327C51.5674 53.0063 50.5146 52.249 49.623 51.2607C48.7314 50.2617 48.0386 49.0532 47.5444 47.6353C47.061 46.2173 46.8193 44.6167 46.8193 42.8335V41.7217C46.8193 39.9277 47.061 38.3271 47.5444 36.9199C48.0278 35.502 48.71 34.2935 49.5908 33.2944C50.4824 32.2954 51.5352 31.5327 52.749 31.0063C53.9736 30.48 55.3218 30.2168 56.7935 30.2168C58.2759 30.2168 59.624 30.48 60.8379 31.0063C62.0625 31.5327 63.1152 32.2954 63.9961 33.2944C64.8877 34.2935 65.5752 35.502 66.0586 36.9199C66.5527 38.3271 66.7998 39.9277 66.7998 41.7217ZM61.9175 42.8335V41.6895C61.9175 40.4434 61.8047 39.3477 61.5791 38.4023C61.3535 37.457 61.0205 36.6621 60.5801 36.0176C60.1396 35.373 59.6025 34.8896 58.9688 34.5674C58.335 34.2344 57.6099 34.0679 56.7935 34.0679C55.9771 34.0679 55.252 34.2344 54.6182 34.5674C53.9951 34.8896 53.4634 35.373 53.0229 36.0176C52.5933 36.6621 52.2656 37.457 52.04 38.4023C51.8145 39.3477 51.7017 40.4434 51.7017 41.6895V42.8335C51.7017 44.0688 51.8145 45.1646 52.04 46.1206C52.2656 47.0659 52.5986 47.8662 53.0391 48.5215C53.4795 49.166 54.0166 49.6548 54.6504 49.9878C55.2842 50.3208 56.0093 50.4873 56.8257 50.4873C57.6421 50.4873 58.3672 50.3208 59.001 49.9878C59.6348 49.6548 60.1665 49.166 60.5962 48.5215C61.0259 47.8662 61.3535 47.0659 61.5791 46.1206C61.8047 45.1646 61.9175 44.0688 61.9175 42.8335ZM82.4941 47.8608C82.4941 47.4419 82.4297 47.0659 82.3008 46.7329C82.1826 46.3892 81.957 46.0776 81.624 45.7983C81.291 45.5083 80.8237 45.2236 80.2222 44.9443C79.6206 44.665 78.8418 44.375 77.8857 44.0742C76.8223 43.7305 75.8125 43.3438 74.8564 42.9141C73.9111 42.4844 73.0732 41.9849 72.3428 41.4155C71.623 40.8354 71.0537 40.1641 70.6348 39.4014C70.2266 38.6387 70.0225 37.7524 70.0225 36.7427C70.0225 35.7651 70.2373 34.8789 70.667 34.084C71.0967 33.2783 71.6982 32.5908 72.4717 32.0215C73.2451 31.4414 74.1582 30.9956 75.2109 30.6841C76.2744 30.3726 77.4399 30.2168 78.7075 30.2168C80.437 30.2168 81.9463 30.5283 83.2354 31.1514C84.5244 31.7744 85.5234 32.6284 86.2324 33.7134C86.9521 34.7983 87.312 36.0391 87.312 37.4355H82.5103C82.5103 36.748 82.3652 36.1465 82.0752 35.6309C81.7959 35.1045 81.3662 34.6909 80.7861 34.3901C80.2168 34.0894 79.4971 33.939 78.627 33.939C77.7891 33.939 77.0908 34.0679 76.5322 34.3257C75.9736 34.5728 75.5547 34.9111 75.2754 35.3408C74.9961 35.7598 74.8564 36.2324 74.8564 36.7588C74.8564 37.1562 74.9531 37.5161 75.1465 37.8384C75.3506 38.1606 75.6514 38.4614 76.0488 38.7407C76.4463 39.02 76.9351 39.2832 77.5151 39.5303C78.0952 39.7773 78.7666 40.019 79.5293 40.2554C80.8076 40.6421 81.9302 41.0771 82.897 41.5605C83.8745 42.0439 84.6909 42.5864 85.3462 43.188C86.0015 43.7896 86.4956 44.4717 86.8286 45.2344C87.1616 45.9971 87.3281 46.8618 87.3281 47.8286C87.3281 48.8491 87.1294 49.7622 86.7319 50.5679C86.3345 51.3735 85.7598 52.0557 85.0078 52.6143C84.2559 53.1729 83.3589 53.5972 82.3169 53.8872C81.2749 54.1772 80.1094 54.3223 78.8203 54.3223C77.6602 54.3223 76.5161 54.1719 75.3882 53.8711C74.2603 53.5596 73.2344 53.0923 72.3105 52.4692C71.3975 51.8462 70.667 51.0513 70.1191 50.0845C69.5713 49.1177 69.2974 47.9736 69.2974 46.6523H74.1475C74.1475 47.3828 74.2603 48.0005 74.4858 48.5054C74.7114 49.0103 75.0283 49.4185 75.4365 49.73C75.8555 50.0415 76.3496 50.2671 76.9189 50.4067C77.499 50.5464 78.1328 50.6162 78.8203 50.6162C79.6582 50.6162 80.3457 50.498 80.8828 50.2617C81.4307 50.0254 81.8335 49.6978 82.0913 49.2788C82.3599 48.8599 82.4941 48.3872 82.4941 47.8608ZM106.358 50.2295V54H93.8701V50.2295H106.358ZM95.4492 30.5391V54H90.6152V30.5391H95.4492ZM104.73 40.0942V43.7681H93.8701V40.0942H104.73ZM106.342 30.5391V34.3257H93.8701V30.5391H106.342ZM118.314 45.6372H112.336V41.8667H118.314C119.238 41.8667 119.99 41.7163 120.57 41.4155C121.15 41.104 121.574 40.6743 121.843 40.1265C122.111 39.5786 122.246 38.9609 122.246 38.2734C122.246 37.5752 122.111 36.9253 121.843 36.3237C121.574 35.7222 121.15 35.2388 120.57 34.8735C119.99 34.5083 119.238 34.3257 118.314 34.3257H114.012V54H109.178V30.5391H118.314C120.151 30.5391 121.725 30.8721 123.035 31.5381C124.356 32.1934 125.366 33.1011 126.064 34.2612C126.763 35.4214 127.112 36.748 127.112 38.2412C127.112 39.7559 126.763 41.0664 126.064 42.1729C125.366 43.2793 124.356 44.1333 123.035 44.7349C121.725 45.3364 120.151 45.6372 118.314 45.6372ZM146.093 40.0942V43.8647H133.847V40.0942H146.093ZM135.281 30.5391V54H130.447V30.5391H135.281ZM149.542 30.5391V54H144.724V30.5391H149.542Z" fill="black"/>
</svg>
