<svg width="60" height="61" viewBox="0 0 60 61" fill="none" xmlns="http://www.w3.org/2000/svg">
<path d="M56.6667 0.439697H3.33333C1.49238 0.439697 0 1.93208 0 3.77303V57.1064C0 58.9473 1.49238 60.4397 3.33333 60.4397H56.6667C58.5076 60.4397 60 58.9473 60 57.1064V3.77303C60 1.93208 58.5076 0.439697 56.6667 0.439697Z" fill="#3C3D3C"/>
<path fill-rule="evenodd" clip-rule="evenodd" d="M10.9492 23.6465H18.9683V49.4482H10.9492V23.6465ZM14.96 10.8207C17.5242 10.8207 19.6075 12.904 19.6075 15.4682C19.6075 18.0348 17.5242 20.119 14.96 20.119C14.342 20.1307 13.728 20.0191 13.1537 19.7907C12.5793 19.5623 12.0563 19.2217 11.6152 18.7888C11.174 18.356 10.8236 17.8395 10.5844 17.2696C10.3452 16.6997 10.222 16.0879 10.222 15.4698C10.222 14.8518 10.3452 14.2399 10.5844 13.67C10.8236 13.1002 11.174 12.5837 11.6152 12.1508C12.0563 11.7179 12.5793 11.3773 13.1537 11.149C13.728 10.9206 14.342 10.809 14.96 10.8207ZM23.9983 23.6457H31.69V27.1715H31.7966C32.8675 25.1432 35.4833 23.0048 39.3842 23.0048C47.5042 23.0048 49.0042 28.349 49.0042 35.2965V49.4482H40.99V36.9007C40.99 33.909 40.935 30.0598 36.8233 30.0598C32.6508 30.0598 32.01 33.319 32.01 36.6848V49.4482H23.9975V23.6465L23.9983 23.6457Z" fill="white"/>
</svg>
