<svg width="288" height="365" viewBox="0 0 288 365" fill="none" xmlns="http://www.w3.org/2000/svg">
<g filter="url(#filter0_d_34_26)">
<rect x="4" width="280" height="357" rx="14" fill="black"/>
</g>
<path d="M83.8593 65.7852C82.9224 65.9911 81.6648 66.8145 81.0909 67.5911C80.6604 68.1712 80.4831 68.6858 80.3228 69.8086C79.9092 72.7466 79.9345 69.8647 79.8501 119.586C79.8079 145.139 79.7826 166.491 79.8079 167.034C79.9092 169.326 80.922 171.16 82.5764 172.031C83.758 172.657 82.4667 172.62 103.534 172.676C114.076 172.714 123.951 172.704 125.479 172.657C127.015 172.611 128.383 172.611 128.526 172.657C128.67 172.695 128.872 172.845 128.99 172.976L129.193 173.219L129.218 179.628C129.244 186.646 129.269 186.281 128.754 186.646C128.543 186.805 128.037 186.814 121.765 186.87C116.051 186.917 114.861 186.945 114 187.085C110.624 187.609 108.041 188.901 105.965 191.109C105.062 192.063 104.032 193.523 103.542 194.552C102.96 195.768 102.732 196.115 102.319 196.386C101.939 196.639 101.905 196.639 99.9468 196.704C97.2797 196.788 95.9123 197.041 93.7769 197.855C92.6965 198.276 90.8058 199.277 89.7339 200.007C88.5353 200.83 87.0836 202.084 86.0623 203.16C84.3067 205.013 83.049 206.903 82.0024 209.27C80.7364 212.143 80.1371 214.772 79.9345 218.393C79.8417 220.18 79.7995 229.743 79.8417 242.131C79.867 249.7 79.867 249.925 79.7066 250.337C79.4534 250.973 78.9554 251.431 77.816 252.077C76.4402 252.863 75.9084 253.265 75.0559 254.173C71.0045 258.524 69.595 263.427 70.7091 269.303C71.1142 271.474 71.6544 273.055 72.4563 274.486C74.1697 277.555 77.0901 280.082 80.2468 281.233C85.0157 282.964 90.9409 281.364 94.756 277.321C96.8914 275.057 98.1997 272.4 98.9931 268.667C99.1956 267.684 99.221 267.385 99.2294 265.925C99.2294 264.054 99.0944 263.183 98.5035 261.265C97.7017 258.664 96.5707 256.568 95.102 254.922C94.0892 253.799 93.5912 253.387 92.3589 252.676C90.924 251.843 90.2066 251.029 89.8183 249.766L89.6157 249.13L89.6326 234.159C89.6495 224.943 89.6917 218.833 89.7423 218.262C89.9871 215.605 90.9409 213.34 92.6205 211.413C94.6631 209.074 97.0096 207.801 99.9553 207.446C101.618 207.24 101.888 207.418 102.639 209.167C103.61 211.441 104.758 213.228 106.252 214.847C108.548 217.308 110.438 218.356 113.485 218.823C114.785 219.02 120.812 219.132 130.628 219.132C139.246 219.142 138.773 219.17 139.043 218.646C139.127 218.477 139.153 213.836 139.153 195.89C139.153 174.576 139.161 173.322 139.296 173.078C139.389 172.929 139.566 172.798 139.76 172.751C139.938 172.704 141.887 172.667 144.09 172.676C147.711 172.695 148.125 172.714 148.37 172.854C148.834 173.125 148.918 173.369 148.994 174.632C149.037 175.259 149.062 185.354 149.053 197.078C149.045 218.028 149.045 218.384 149.214 218.692C149.408 219.067 149.889 219.273 150.379 219.188C150.564 219.16 154.987 219.095 160.212 219.057C166.179 219.001 170.02 218.936 170.551 218.87C172.358 218.646 174.071 218.112 175.194 217.42C176.527 216.587 178.587 214.622 179.709 213.106C180.638 211.853 181.617 210 182.081 208.606C182.461 207.483 182.866 207.305 184.816 207.39C187.12 207.492 189.078 207.623 189.829 207.736C191.813 208.026 193.383 208.877 194.885 210.477C196.489 212.18 197.645 214.435 198.16 216.868C198.278 217.429 198.303 219.048 198.371 230.136C198.472 246.594 198.455 250.253 198.261 250.627C198.025 251.113 197.603 251.469 196.295 252.311C195.603 252.76 194.758 253.34 194.429 253.593C191.636 255.717 189.779 258.945 188.977 263.024C188.816 263.876 188.791 264.288 188.783 266.112C188.783 267.983 188.808 268.33 188.977 269.19C189.449 271.502 190.293 273.429 191.863 275.74C194.083 279.006 196.945 280.999 200.43 281.7C201.722 281.962 204.516 281.944 205.68 281.663C206.972 281.354 207.993 280.952 209.209 280.297C212.416 278.547 214.729 276.077 216.138 272.896C217.016 270.912 217.463 269.078 217.598 266.898C217.835 263.155 216.889 259.843 214.661 256.615C214.053 255.726 212.652 254.173 211.834 253.462C211.42 253.106 210.711 252.582 210.272 252.292C208.846 251.366 208.651 251.207 208.432 250.851L208.221 250.486L208.187 235.076C208.162 225.925 208.111 219.011 208.061 218.065C207.875 214.66 207.293 212.152 206.052 209.364C205.427 207.979 204.262 205.93 203.511 204.919C202.844 204.012 201.629 202.655 200.768 201.85C196.793 198.145 190.969 196.218 184.849 196.592C182.908 196.714 182.689 196.676 182.047 196.208C181.735 195.984 181.482 195.637 180.941 194.73C178.722 190.987 176.468 188.873 173.531 187.787C171.767 187.132 170.653 187.02 164.094 186.861C161.841 186.805 159.857 186.711 159.672 186.664C159.266 186.543 158.971 186.225 158.903 185.822C158.878 185.645 158.861 182.791 158.878 179.469C158.903 173.902 158.912 173.406 159.047 173.172C159.131 173.041 159.275 172.882 159.368 172.826C159.486 172.751 166.137 172.723 181.802 172.704L204.06 172.686L204.718 172.48C205.638 172.19 206.297 171.769 206.828 171.151C207.563 170.3 207.9 169.401 208.061 167.867C208.12 167.352 208.154 150.323 208.154 118.838C208.162 65.0928 208.221 70.0051 207.563 68.5361C206.997 67.2636 205.993 66.4121 204.6 66.0098C204.153 65.8788 203.334 65.8414 199.797 65.7852C194.117 65.6823 84.2982 65.6917 83.8593 65.7852ZM170.636 86.7536C174.138 87.3244 178.114 89.7945 180.3 92.7793C181.878 94.9314 182.756 97.1208 183.263 100.171C183.423 101.107 183.44 101.771 183.507 107.516C183.55 111.09 183.55 119.006 183.516 125.762C183.448 136.11 183.423 137.794 183.305 138.487C182.756 141.715 181.524 144.307 179.439 146.627C176.071 150.388 171.817 152.288 167.682 151.876C163.723 151.483 160.389 149.705 157.924 146.665C156.16 144.475 154.666 141.051 154.211 138.122C154.05 137.065 154.042 136.55 154.033 119.633C154.025 101.79 154.033 100.826 154.354 99.1231C155.569 92.4986 161.503 87.1466 168.23 86.6132C168.762 86.5758 169.935 86.6413 170.636 86.7536ZM120.964 86.7817C124.652 87.3244 128.492 89.6261 130.847 92.6857C132.797 95.2121 133.802 97.8413 134.122 101.247C134.257 102.669 134.409 112.063 134.342 115.329C134.316 116.976 134.274 122.468 134.257 127.539C134.24 132.611 134.207 137.093 134.181 137.504C134.055 139.75 133.135 142.482 131.826 144.531C131.21 145.495 129.826 147.123 128.898 147.984C126.872 149.855 124.483 151.156 122.044 151.698C121.234 151.876 120.837 151.914 119.36 151.904C117.815 151.904 117.52 151.876 116.566 151.652C113.561 150.95 111.063 149.387 108.911 146.87C106.378 143.895 105.087 140.658 104.766 136.466C104.631 134.8 104.547 107.975 104.657 104.054C104.758 100.602 104.868 99.7033 105.433 97.8787C107.012 92.7512 111.08 88.653 116.119 87.1091C117.604 86.6507 119.309 86.5384 120.964 86.7817Z" fill="white"/>
<path d="M130.966 230.183C124.796 230.211 119.689 230.267 119.63 230.304C119.571 230.351 119.487 230.482 119.444 230.604C119.402 230.725 119.368 236.714 119.36 244.143C119.343 257.336 119.352 257.467 119.52 258.206C119.757 259.198 120.17 260.115 120.753 260.919C121.327 261.705 121.445 261.939 121.554 262.529C121.69 263.231 121.808 262.669 117.258 283.89C116.093 289.308 115.427 292.255 115.317 292.405C114.971 292.929 114.692 293.013 113.443 292.985C111.73 292.957 107.653 293.125 106.421 293.294C103.517 293.677 101.306 294.435 98.5542 295.998C95.9883 297.457 94.2749 298.805 92.4011 300.826C87.8095 305.794 85.1845 312.447 85.1508 319.258C85.1423 320.55 85.1677 321.027 85.2858 321.495C85.6234 322.87 86.4253 323.956 87.5647 324.545C87.9024 324.732 88.6367 325.003 89.1938 325.163C90.0716 325.415 90.4092 325.462 91.9285 325.527C92.8822 325.574 99.4658 325.612 106.556 325.612C120.837 325.621 120.01 325.658 121.259 325.013C122.669 324.292 123.707 323.048 124.171 321.513C124.348 320.915 124.348 320.877 124.382 309.49C124.399 299.45 124.424 297.963 124.542 297.177C124.618 296.69 124.998 294.922 125.395 293.247C126.18 289.897 126.298 289.317 127.083 285.013C127.674 281.776 127.792 281.195 129.396 273.832C129.995 271.053 130.645 268.021 130.839 267.095C131.464 264.054 131.506 263.867 131.683 263.493C132.029 262.735 131.21 262.791 142.065 262.763L151.729 262.744L152.109 262.95C152.312 263.071 152.548 263.296 152.632 263.455C152.894 263.96 153.628 267.946 155.063 276.685C156.177 283.45 156.726 286.632 157.308 289.598C158.119 293.743 158.642 297.495 158.861 300.685C158.92 301.499 158.954 305.476 158.954 311.212C158.946 318.996 158.963 320.531 159.072 321.083C159.461 323.132 160.845 324.704 162.786 325.294C163.647 325.556 166.517 325.612 180.384 325.612C194.978 325.621 194.218 325.649 195.307 325.022C196.362 324.405 197.147 323.516 197.645 322.393C198.033 321.513 198.152 320.447 198.084 318.136C197.991 314.674 197.223 311.511 195.535 307.703C194.353 305.018 193.307 303.446 191.112 301.013C187.787 297.345 183.668 294.575 179.946 293.528C178.528 293.116 177.827 293.069 173.303 293.013C170.906 292.975 168.787 292.91 168.585 292.863C168.129 292.751 167.834 292.545 167.682 292.218C167.614 292.077 167.31 290.459 167.006 288.606C166.702 286.763 166.306 284.386 166.12 283.329C165.934 282.271 165.31 278.604 164.727 275.17C164.153 271.736 163.478 267.928 163.25 266.702C162.651 263.577 162.634 263.502 162.702 262.987C162.778 262.323 163.022 261.864 163.748 261.013C164.668 259.956 165.023 259.226 165.183 258.094C165.225 257.785 165.225 252.077 165.175 244.414C165.099 230.276 165.107 230.688 164.677 230.388C164.575 230.314 164.145 230.22 163.723 230.173C162.946 230.089 151.51 230.098 130.966 230.183Z" fill="white"/>
<defs>
<filter id="filter0_d_34_26" x="0" y="0" width="288" height="365" filterUnits="userSpaceOnUse" color-interpolation-filters="sRGB">
<feFlood flood-opacity="0" result="BackgroundImageFix"/>
<feColorMatrix in="SourceAlpha" type="matrix" values="0 0 0 0 0 0 0 0 0 0 0 0 0 0 0 0 0 0 127 0" result="hardAlpha"/>
<feOffset dy="4"/>
<feGaussianBlur stdDeviation="2"/>
<feComposite in2="hardAlpha" operator="out"/>
<feColorMatrix type="matrix" values="0 0 0 0 0 0 0 0 0 0 0 0 0 0 0 0 0 0 0.25 0"/>
<feBlend mode="normal" in2="BackgroundImageFix" result="effect1_dropShadow_34_26"/>
<feBlend mode="normal" in="SourceGraphic" in2="effect1_dropShadow_34_26" result="shape"/>
</filter>
</defs>
</svg>
