<svg width="295" height="372" viewBox="0 0 295 372" fill="none" xmlns="http://www.w3.org/2000/svg">
<g filter="url(#filter0_d_34_26)">
<rect x="4" width="287" height="364" rx="14" fill="#96C5B0"/>
</g>
<path d="M85.8558 67.0752C84.8955 67.285 83.6064 68.1246 83.0181 68.9164C82.5769 69.5079 82.3952 70.0326 82.2309 71.1774C81.8069 74.173 81.8329 71.2347 81.7464 121.931C81.7031 147.985 81.6772 169.756 81.7031 170.309C81.8069 172.647 82.8451 174.516 84.5408 175.404C85.752 176.043 84.4283 176.005 106.022 176.062C116.828 176.1 126.95 176.091 128.516 176.043C130.091 175.995 131.492 175.995 131.639 176.043C131.786 176.081 131.994 176.234 132.115 176.367L132.323 176.615L132.349 183.15C132.375 190.305 132.401 189.933 131.873 190.305C131.657 190.468 131.138 190.477 124.71 190.534C118.853 190.582 117.633 190.611 116.75 190.754C113.29 191.288 110.642 192.605 108.514 194.856C107.588 195.829 106.533 197.317 106.031 198.367C105.434 199.607 105.201 199.96 104.777 200.237C104.387 200.494 104.353 200.494 102.346 200.561C99.6117 200.647 98.2101 200.905 96.0213 201.735C94.9139 202.164 92.976 203.185 91.8772 203.929C90.6487 204.768 89.1607 206.047 88.1138 207.144C86.3143 209.033 85.0253 210.96 83.9525 213.374C82.6548 216.302 82.0405 218.983 81.8329 222.675C81.7377 224.497 81.6945 234.247 81.7377 246.879C81.7637 254.597 81.7637 254.826 81.5993 255.245C81.3397 255.894 80.8293 256.362 79.6614 257.02C78.2512 257.821 77.7061 258.231 76.8323 259.157C72.6796 263.593 71.2348 268.592 72.3768 274.583C72.7921 276.797 73.3458 278.409 74.1677 279.868C75.9239 282.998 78.9173 285.573 82.153 286.747C87.0411 288.512 93.1144 286.88 97.0249 282.759C99.2137 280.45 100.555 277.741 101.368 273.934C101.576 272.933 101.601 272.627 101.61 271.139C101.61 269.231 101.472 268.344 100.866 266.388C100.044 263.736 98.8849 261.599 97.3796 259.92C96.3414 258.775 95.831 258.355 94.5678 257.63C93.0971 256.781 92.3617 255.951 91.9638 254.663L91.7561 254.015L91.7734 238.75C91.7907 229.353 91.834 223.124 91.8859 222.542C92.1368 219.832 93.1144 217.524 94.836 215.558C96.9297 213.173 99.3348 211.876 102.354 211.513C104.059 211.303 104.335 211.485 105.105 213.269C106.1 215.587 107.277 217.409 108.808 219.059C111.161 221.569 113.099 222.637 116.222 223.114C117.555 223.314 123.732 223.429 133.794 223.429C142.627 223.438 142.142 223.467 142.419 222.933C142.506 222.761 142.532 218.029 142.532 199.731C142.532 177.999 142.54 176.72 142.679 176.472C142.774 176.32 142.956 176.186 143.155 176.138C143.336 176.091 145.335 176.052 147.593 176.062C151.304 176.081 151.728 176.1 151.979 176.243C152.455 176.52 152.541 176.768 152.619 178.056C152.662 178.695 152.688 188.989 152.68 200.943C152.671 222.303 152.671 222.666 152.844 222.98C153.043 223.362 153.536 223.572 154.038 223.486C154.228 223.458 158.762 223.391 164.117 223.353C170.234 223.295 174.17 223.229 174.715 223.162C176.566 222.933 178.323 222.389 179.473 221.683C180.84 220.834 182.951 218.831 184.102 217.285C185.054 216.007 186.057 214.118 186.533 212.696C186.922 211.551 187.338 211.37 189.336 211.456C191.698 211.561 193.705 211.694 194.475 211.809C196.508 212.105 198.117 212.973 199.657 214.604C201.301 216.341 202.486 218.64 203.014 221.12C203.135 221.693 203.161 223.343 203.23 234.648C203.334 251.429 203.317 255.159 203.118 255.541C202.876 256.037 202.443 256.4 201.102 257.258C200.393 257.716 199.527 258.308 199.19 258.565C196.326 260.731 194.423 264.022 193.601 268.182C193.437 269.05 193.411 269.47 193.402 271.33C193.402 273.238 193.428 273.591 193.601 274.469C194.086 276.825 194.951 278.79 196.56 281.147C198.835 284.476 201.768 286.508 205.341 287.224C206.665 287.491 209.529 287.472 210.722 287.186C212.046 286.871 213.093 286.461 214.339 285.793C217.626 284.009 219.997 281.49 221.442 278.247C222.341 276.224 222.8 274.354 222.938 272.131C223.181 268.315 222.212 264.938 219.928 261.647C219.305 260.74 217.869 259.157 217.029 258.432C216.605 258.069 215.879 257.535 215.429 257.239C213.967 256.295 213.768 256.133 213.543 255.77L213.327 255.398L213.292 239.685C213.266 230.355 213.214 223.305 213.162 222.341C212.972 218.869 212.375 216.312 211.103 213.469C210.463 212.057 209.269 209.968 208.499 208.937C207.816 208.012 206.57 206.629 205.687 205.808C201.612 202.03 195.643 200.065 189.371 200.447C187.381 200.571 187.156 200.532 186.498 200.055C186.178 199.827 185.919 199.474 185.365 198.548C183.09 194.732 180.78 192.576 177.769 191.469C175.961 190.802 174.819 190.687 168.097 190.525C165.787 190.468 163.754 190.372 163.563 190.325C163.148 190.2 162.845 189.876 162.776 189.466C162.75 189.285 162.733 186.375 162.75 182.988C162.776 177.312 162.785 176.806 162.923 176.568C163.01 176.434 163.157 176.272 163.252 176.215C163.373 176.138 170.19 176.11 186.247 176.091L209.061 176.072L209.736 175.862C210.679 175.566 211.354 175.137 211.899 174.507C212.652 173.639 212.998 172.723 213.162 171.158C213.223 170.634 213.257 153.271 213.257 121.168C213.266 66.3692 213.327 71.3778 212.652 69.88C212.072 68.5825 211.043 67.7144 209.615 67.3041C209.157 67.1706 208.317 67.1324 204.692 67.0752C198.87 66.9702 86.3057 66.9798 85.8558 67.0752ZM174.802 88.4547C178.392 89.0366 182.467 91.5552 184.708 94.5985C186.325 96.7928 187.225 99.0252 187.744 102.135C187.909 103.089 187.926 103.767 187.995 109.624C188.038 113.269 188.038 121.34 188.004 128.228C187.935 138.779 187.909 140.496 187.787 141.202C187.225 144.494 185.962 147.136 183.825 149.502C180.373 153.337 176.013 155.274 171.774 154.854C167.716 154.454 164.299 152.641 161.772 149.54C159.964 147.308 158.433 143.816 157.966 140.83C157.801 139.752 157.793 139.227 157.784 121.979C157.775 103.786 157.784 102.803 158.113 101.067C159.359 94.3123 165.441 88.8553 172.336 88.3116C172.881 88.2734 174.084 88.3402 174.802 88.4547ZM123.888 88.4833C127.668 89.0366 131.605 91.3835 134.019 94.5031C136.017 97.079 137.047 99.7598 137.375 103.232C137.514 104.682 137.669 114.261 137.6 117.59C137.574 119.269 137.531 124.869 137.514 130.04C137.496 135.211 137.462 139.781 137.436 140.201C137.306 142.49 136.363 145.276 135.022 147.365C134.391 148.348 132.972 150.008 132.02 150.885C129.944 152.794 127.495 154.12 124.995 154.673C124.165 154.854 123.758 154.892 122.244 154.883C120.661 154.883 120.358 154.854 119.38 154.625C116.3 153.91 113.74 152.317 111.533 149.75C108.938 146.716 107.614 143.416 107.286 139.142C107.147 137.443 107.061 110.092 107.173 106.094C107.277 102.574 107.389 101.658 107.969 99.7979C109.587 94.5699 113.757 90.3913 118.922 88.8172C120.444 88.3497 122.192 88.2352 123.888 88.4833Z" fill="white"/>
<path d="M134.14 234.696C127.815 234.725 122.581 234.782 122.521 234.82C122.46 234.868 122.374 235.001 122.33 235.125C122.287 235.249 122.253 241.355 122.244 248.93C122.227 262.382 122.235 262.515 122.408 263.269C122.651 264.28 123.074 265.215 123.671 266.035C124.26 266.837 124.381 267.075 124.493 267.676C124.632 268.392 124.753 267.819 120.09 289.457C118.896 294.98 118.212 297.985 118.1 298.138C117.745 298.672 117.46 298.758 116.179 298.73C114.423 298.701 110.244 298.873 108.981 299.044C106.005 299.436 103.738 300.208 100.918 301.802C98.288 303.29 96.5318 304.664 94.6111 306.724C89.9047 311.79 87.2141 318.573 87.1795 325.518C87.1709 326.835 87.1968 327.322 87.318 327.799C87.664 329.201 88.4859 330.308 89.6538 330.909C89.9999 331.099 90.7526 331.376 91.3236 331.538C92.2233 331.796 92.5694 331.844 94.1267 331.91C95.1043 331.958 101.852 331.996 109.12 331.996C123.758 332.006 122.91 332.044 124.191 331.386C125.635 330.651 126.699 329.382 127.175 327.818C127.357 327.207 127.357 327.169 127.392 315.558C127.409 305.322 127.435 303.805 127.556 303.004C127.634 302.508 128.023 300.704 128.43 298.997C129.234 295.581 129.355 294.99 130.16 290.601C130.766 287.301 130.887 286.709 132.531 279.201C133.145 276.367 133.811 273.276 134.01 272.332C134.65 269.231 134.693 269.041 134.875 268.659C135.23 267.886 134.391 267.944 145.516 267.915L155.422 267.896L155.812 268.106C156.019 268.23 156.262 268.459 156.348 268.621C156.616 269.136 157.369 273.2 158.84 282.111C159.982 289.008 160.544 292.252 161.141 295.276C161.971 299.502 162.508 303.328 162.733 306.581C162.793 307.411 162.828 311.466 162.828 317.314C162.819 325.251 162.837 326.816 162.949 327.379C163.347 329.468 164.766 331.071 166.756 331.672C167.638 331.939 170.58 331.996 184.794 331.996C199.752 332.006 198.974 332.034 200.09 331.395C201.171 330.766 201.976 329.859 202.486 328.714C202.884 327.818 203.005 326.73 202.936 324.374C202.841 320.844 202.054 317.619 200.323 313.736C199.112 310.998 198.039 309.396 195.79 306.915C192.381 303.175 188.16 300.351 184.344 299.283C182.891 298.863 182.173 298.815 177.535 298.758C175.078 298.72 172.907 298.653 172.699 298.606C172.232 298.491 171.929 298.281 171.774 297.947C171.704 297.804 171.393 296.154 171.081 294.265C170.77 292.385 170.363 289.962 170.173 288.884C169.983 287.806 169.343 284.066 168.746 280.565C168.157 277.064 167.465 273.181 167.232 271.931C166.617 268.745 166.6 268.669 166.669 268.144C166.747 267.467 166.998 266.999 167.742 266.131C168.685 265.053 169.048 264.309 169.213 263.154C169.256 262.84 169.256 257.02 169.204 249.207C169.126 234.791 169.135 235.211 168.694 234.906C168.59 234.83 168.149 234.734 167.716 234.686C166.92 234.601 155.197 234.61 134.14 234.696Z" fill="white"/>
<defs>
<filter id="filter0_d_34_26" x="0" y="0" width="295" height="372" filterUnits="userSpaceOnUse" color-interpolation-filters="sRGB">
<feFlood flood-opacity="0" result="BackgroundImageFix"/>
<feColorMatrix in="SourceAlpha" type="matrix" values="0 0 0 0 0 0 0 0 0 0 0 0 0 0 0 0 0 0 127 0" result="hardAlpha"/>
<feOffset dy="4"/>
<feGaussianBlur stdDeviation="2"/>
<feComposite in2="hardAlpha" operator="out"/>
<feColorMatrix type="matrix" values="0 0 0 0 0 0 0 0 0 0 0 0 0 0 0 0 0 0 0.25 0"/>
<feBlend mode="normal" in2="BackgroundImageFix" result="effect1_dropShadow_34_26"/>
<feBlend mode="normal" in="SourceGraphic" in2="effect1_dropShadow_34_26" result="shape"/>
</filter>
</defs>
</svg>
