<svg width="223" height="58" viewBox="0 0 223 58" fill="none" xmlns="http://www.w3.org/2000/svg">
<path d="M2.5 13C2.5 7.20101 7.20101 2.5 13 2.5H209.784C215.583 2.5 220.284 7.20101 220.284 13V45C220.284 50.799 215.583 55.5 209.784 55.5H13C7.20101 55.5 2.5 50.799 2.5 45V13Z" fill="black" stroke="white" stroke-width="5"/>
<path d="M10 11H79V47H10V11Z" fill="white"/>
<path d="M89.5 11.5H206.5V46.5H89.5V11.5Z" stroke="white"/>
<path d="M116.485 38.8408L120.304 22.228H122.688L123.43 24.6934L119.53 41H116.968L116.485 38.8408ZM115.002 22.228L118.161 38.7441L117.661 41H114.874L110.523 22.228H115.002ZM126.572 38.7441L129.714 22.228H134.177L129.843 41H127.087L126.572 38.7441ZM124.396 22.228L128.264 38.8569L127.764 41H125.202L121.206 24.6934L121.996 22.228H124.396ZM153.271 31.2354V32.0088C153.271 33.4375 153.057 34.7212 152.627 35.8599C152.208 36.9985 151.612 37.9707 150.838 38.7764C150.065 39.582 149.141 40.1997 148.067 40.6294C147.003 41.0483 145.827 41.2578 144.538 41.2578C143.249 41.2578 142.067 41.0483 140.993 40.6294C139.93 40.1997 139.006 39.582 138.222 38.7764C137.438 37.9707 136.831 36.9985 136.401 35.8599C135.971 34.7212 135.756 33.4375 135.756 32.0088V31.2354C135.756 29.7959 135.966 28.5122 136.385 27.3843C136.814 26.2456 137.416 25.2734 138.189 24.4678C138.974 23.6514 139.897 23.0337 140.961 22.6147C142.035 22.1851 143.217 21.9702 144.506 21.9702C145.795 21.9702 146.971 22.1851 148.035 22.6147C149.109 23.0337 150.038 23.6514 150.822 24.4678C151.606 25.2734 152.208 26.2456 152.627 27.3843C153.057 28.5122 153.271 29.7959 153.271 31.2354ZM148.615 32.0088V31.2031C148.615 30.3008 148.518 29.5059 148.325 28.8184C148.142 28.1201 147.874 27.5347 147.519 27.062C147.175 26.5786 146.746 26.2134 146.23 25.9663C145.725 25.7085 145.15 25.5796 144.506 25.5796C143.851 25.5796 143.265 25.7085 142.75 25.9663C142.245 26.2134 141.82 26.5786 141.477 27.062C141.133 27.5347 140.87 28.1201 140.687 28.8184C140.515 29.5059 140.429 30.3008 140.429 31.2031V32.0088C140.429 32.9004 140.515 33.6953 140.687 34.3936C140.87 35.0918 141.138 35.688 141.493 36.1821C141.847 36.6655 142.277 37.0361 142.782 37.2939C143.297 37.541 143.883 37.6646 144.538 37.6646C145.183 37.6646 145.757 37.541 146.262 37.2939C146.767 37.0361 147.191 36.6655 147.535 36.1821C147.89 35.688 148.158 35.0918 148.341 34.3936C148.523 33.6953 148.615 32.9004 148.615 32.0088ZM155.93 22.228H163.777C164.938 22.228 165.985 22.3516 166.919 22.5986C167.854 22.835 168.649 23.1895 169.304 23.6621C169.97 24.1348 170.48 24.7256 170.835 25.4346C171.189 26.1328 171.367 26.9438 171.367 27.8677C171.367 28.9634 171.184 29.8765 170.819 30.6069C170.454 31.3374 169.949 31.9336 169.304 32.3955C168.66 32.8574 167.913 33.2441 167.064 33.5557L165.518 34.458H158.847L158.814 30.8325H163.81C164.454 30.8325 164.991 30.7358 165.421 30.5425C165.851 30.3384 166.173 30.0483 166.388 29.6724C166.603 29.2964 166.71 28.8506 166.71 28.335C166.71 27.8086 166.597 27.3628 166.372 26.9976C166.146 26.6323 165.813 26.353 165.373 26.1597C164.943 25.9663 164.411 25.8696 163.777 25.8696H160.587V41H155.93V22.228ZM167.064 41L162.569 32.7178L167.5 32.6694L172.076 40.8066V41H167.064ZM179.085 22.228V41H174.444V22.228H179.085ZM191.041 22.228L183.291 31.8315L178.892 36.1499L177.715 32.0088L180.696 28.0288L185.224 22.228H191.041ZM185.708 41L180.293 32.605L183.871 29.9785L191.218 41H185.708Z" fill="white"/>
<path d="M27.52 19.8047H30.8687L35.7993 33.8979L40.73 19.8047H44.0786L37.144 39H34.4546L27.52 19.8047ZM25.7139 19.8047H29.0493L29.6558 33.542V39H25.7139V19.8047ZM42.5493 19.8047H45.8979V39H41.9429V33.542L42.5493 19.8047ZM51.6328 19.8047L55.6406 28.5586L59.6484 19.8047H63.9595L57.6445 32.0127V39H53.6367V32.0127L47.3086 19.8047H51.6328Z" fill="black"/>
</svg>
