<svg width="70" height="55" viewBox="0 0 70 55" fill="none" xmlns="http://www.w3.org/2000/svg">
<path d="M69.8709 18.0382C67.3839 18.5131 64.8568 18.6077 62.3674 18.3189C65.3126 17.3506 67.8551 15.2809 69.5132 12.5018C66.7554 13.4081 63.8869 13.8119 61.0316 13.6959C59.8492 11.3774 58.0252 9.51212 55.7964 8.3424C53.5677 7.17268 51.0373 6.75257 48.5339 7.13667C46.0306 7.52077 43.6701 8.69131 41.759 10.4962C39.8479 12.3011 38.4747 14.657 37.8176 17.2577C37.5577 18.2853 37.3892 19.294 37.3509 20.2852C32.5917 18.8126 28.2112 16.2806 24.496 12.8547C20.7808 9.42883 17.8144 5.18626 15.7908 0.404375C13.5125 2.86384 12.1764 6.12252 12.0544 9.51687C11.9325 12.9112 13.0339 16.186 15.1344 18.6744C13.2291 18.134 11.4889 17.1113 10.0606 15.6923L10.0246 15.8346C9.27067 18.8292 9.50461 21.9751 10.687 24.7427C11.8694 27.5103 13.928 29.7307 16.5164 31.0301C15.4053 31.0601 14.3001 30.9333 13.2298 30.653C12.4557 30.4729 11.705 30.2041 10.9904 29.8512C11.1231 32.6225 12.064 35.2546 13.6838 37.3851C15.3036 39.5157 17.5225 41.0398 20.0351 41.7477C14.836 44.2515 9.05087 44.8599 3.60448 43.4757C2.61022 43.2243 1.66861 42.9357 0.747993 42.5641C5.32563 47.7863 11.2747 51.4409 17.8756 53.0858C40.1855 58.7278 57.3806 42.0499 61.7127 24.9197C61.8577 24.3466 61.9791 23.7885 62.0922 23.2326C64.9463 22.0073 67.5823 20.247 69.8709 18.0382Z" fill="#3C3D3C"/>
</svg>
